<svg width="48" height="48" viewBox="0 0 48 48" fill="none" xmlns="http://www.w3.org/2000/svg">
<circle cx="24" cy="24" r="23" stroke="#F9F9F8" stroke-width="2"/>
<g clip-path="url(#clip0)">
<path d="M17.1429 24.8001C16.8 24.8001 16.5714 24.6858 16.3429 24.4572C15.8857 24.0001 15.8857 23.3144 16.3429 22.8572L22.5143 16.4572C22.8571 16.2287 23.2 16.0001 23.6571 16.0001C24 16.0001 24.3429 16.2287 24.6857 16.4572L31.2 22.8572C31.6571 23.3144 31.6571 24.0001 31.2 24.4572C30.7429 24.9144 30.0571 24.9144 29.6 24.4572L23.6571 18.6287L17.9429 24.4572C17.7143 24.6858 17.4857 24.8001 17.1429 24.8001Z" fill="#F9F9F8"/>
<path d="M23.6571 32.0001C22.9714 32.0001 22.5143 31.543 22.5143 30.8573V17.143C22.5143 16.4572 22.9714 16.0001 23.6571 16.0001C24.3429 16.0001 24.8 16.4572 24.8 17.143V30.8573C24.8 31.543 24.3429 32.0001 23.6571 32.0001Z" fill="#F9F9F8"/>
</g>
<defs>
<clipPath id="clip0">
<rect width="15.5429" height="16" fill="white" transform="translate(16 16.0001)"/>
</clipPath>
</defs>
</svg>
