<svg width="47" height="47" viewBox="0 0 47 47" fill="none" xmlns="http://www.w3.org/2000/svg">
<g clip-path="url(#clip0)">
<path d="M0 14.2C0 10.4 1.5 6.8 4.1 4.1C6.7 1.5 10.3 0 14 0H46.4V7.2H14C12.2 7.2 10.4 7.9 9.1 9.3C7.8 10.6 7.1 12.4 7.1 14.2V26.4C7 28 6.3 29.4 5.2 30.6C4.1 31.7 2.8 32.5 1.2 32.7L0 32.9V14.2Z" fill="#E61801"/>
<path d="M0 47V39.8H32.4C34.2 39.8 36 39.1 37.3 37.7C38.6 36.4 39.3 34.6 39.3 32.8V21.3C39.3 19.6 39.9 18 41 16.7C42.1 15.4 43.6 14.6 45.2 14.3L46.5 14.1V32.8C46.5 36.6 45 40.2 42.4 42.9C39.8 45.6 36.2 47.1 32.5 47.1H0V47Z" fill="#E61801"/>
<path d="M26.7 32.9V25.7H19.6V32.9H14.8V14.5H19.6V21.4H26.7V14.5H31.5V32.9H26.7Z" fill="#E61801"/>
</g>
<defs>
<clipPath id="clip0">
<rect width="46.4" height="47" fill="white"/>
</clipPath>
</defs>
</svg>
