<svg width="48" height="48" viewBox="0 0 48 48" fill="none" xmlns="http://www.w3.org/2000/svg">
<g clip-path="url(#clip0)">
<path d="M40.4819 6.51428C40.7133 6.05714 40.7133 6.05714 41.8699 3.08571C38.9783 2.74285 37.359 2.51428 34.8145 2.51428C31.4602 0.914283 27.8747 -0.114288 23.9422 -0.114288C10.7566 -2.6077e-06 0 10.7429 0 24C0 37.2571 10.7566 48 23.9422 48C37.2434 48 47.8843 37.2571 47.8843 24C48 17.1429 45.1084 10.9714 40.4819 6.51428Z" fill="white"/>
<path d="M17.5807 43.3143C19.6626 44 21.7446 44.3429 23.9422 44.3429C35.1614 44.3429 44.2988 35.2 44.2988 23.8857C44.2988 18.5143 42.1012 13.4857 38.6313 9.82858H38.5157H38.4C37.359 10.9714 36.2024 12 35.0458 12.8C32.5012 14.4 29.6096 15.3143 26.6024 15.3143C20.9349 15.3143 17.812 12.5714 15.2675 10.6286L15.1518 10.5143C15.1518 10.5143 15.1518 10.4 15.2675 10.4C19.3157 7.31429 22.5542 5.37144 25.9084 4.22858C26.0241 4.22858 26.0241 4.11429 26.0241 4.00001C26.0241 3.88572 25.9084 3.88572 25.7928 3.77144C25.2145 3.77144 24.6361 3.77144 23.9422 3.77144C12.7229 3.54287 3.58554 12.6857 3.58554 24C3.58554 30.1714 6.36144 35.7714 10.7566 39.5429C10.7566 39.5429 12.4916 41.6 17.5807 43.3143Z" fill="#E61801"/>
<path d="M18.7374 10.5143C25.4458 15.6571 35.3928 13.0286 38.747 5.02856C32.6169 7.88571 25.7928 9.82856 18.7374 10.5143Z" fill="#78B617"/>
<path d="M18.7374 10.5143C25.7928 9.82857 32.5012 8 38.6313 5.02857C31.8072 4.22857 24.6362 5.94286 18.7374 10.5143Z" fill="#28A62A"/>
<path d="M22.3582 18.7429C21.0859 19.7714 19.6979 21.0286 18.5413 22.4C18.5413 22.4 19.5823 21.9429 21.5485 21.9429C28.604 21.9429 31.3799 27.0857 30.8016 31.7714C29.8763 39.0857 24.0931 43.7714 16.4594 43.7714C8.47867 43.7714 4.19915 39.4286 5.12445 31.5429C5.35578 29.6 6.62807 22.9714 14.9558 16L15.1871 16.3429C16.5751 17.7143 18.31 18.6286 20.2763 18.7429H22.3582ZM22.2425 32.4571C22.4738 30.5143 20.7389 28.9143 18.4257 28.9143C16.1124 28.9143 13.9148 30.5143 13.6835 32.4571C13.4522 34.4 15.1871 36 17.5004 36C19.8136 36 22.0112 34.4 22.2425 32.4571Z" fill="white"/>
</g>
<defs>
<clipPath id="clip0">
<rect width="48" height="48" fill="white"/>
</clipPath>
</defs>
</svg>
